<?xml version="1.0" standalone="no"?>
<!DOCTYPE svg PUBLIC "-//W3C//DTD SVG 20010904//EN"
 "http://www.w3.org/TR/2001/REC-SVG-20010904/DTD/svg10.dtd">
<svg version="1.0" xmlns="http://www.w3.org/2000/svg"
 width="512.000000pt" height="512.000000pt" viewBox="0 0 512.000000 512.000000"
 preserveAspectRatio="xMidYMid meet">
<metadata>
Created by potrace 1.14, written by Peter Selinger 2001-2017
</metadata>
<g transform="translate(0.000000,512.000000) scale(0.100000,-0.100000)"
fill="#000000" stroke="none">
<path d="M3180 5109 c-404 -4 -1008 -7 -1341 -9 l-606 -2 -39 -66 c-21 -37
-45 -80 -53 -97 -9 -16 -18 -32 -21 -35 -3 -3 -16 -26 -28 -52 -12 -27 -27
-48 -33 -48 -5 0 -8 -4 -5 -8 3 -5 -5 -24 -17 -43 -13 -19 -31 -52 -42 -74
-11 -22 -24 -43 -29 -47 -5 -3 -11 -14 -12 -24 -2 -9 -9 -21 -16 -25 -7 -5 -9
-9 -4 -9 5 0 2 -8 -6 -17 -8 -10 -28 -43 -44 -73 -16 -30 -32 -57 -37 -58 -4
-2 -5 -8 -1 -13 3 -5 0 -9 -5 -9 -6 0 -10 -3 -9 -7 1 -5 -20 -46 -47 -93 -28
-47 -50 -88 -50 -92 0 -4 -8 -17 -18 -28 -9 -11 -17 -23 -17 -26 0 -3 -17 -36
-37 -72 -21 -37 -37 -69 -37 -72 1 -3 -6 -10 -15 -17 -9 -7 -11 -13 -6 -13 6
0 6 -3 -1 -8 -5 -4 -18 -23 -27 -42 -10 -19 -23 -44 -30 -55 -6 -11 -18 -31
-27 -45 -8 -14 -13 -28 -12 -32 1 -5 -2 -8 -7 -8 -5 0 -15 -15 -22 -32 -7 -18
-19 -39 -26 -46 -7 -7 -13 -20 -13 -28 0 -8 -5 -14 -11 -14 -5 0 -8 -4 -4 -9
3 -5 -1 -15 -8 -23 -7 -7 -29 -42 -48 -78 -18 -36 -37 -67 -42 -68 -4 -2 -5
-8 -1 -13 3 -5 0 -9 -6 -9 -6 0 -9 -4 -5 -9 3 -6 -3 -14 -12 -20 -10 -6 -13
-11 -8 -11 7 0 7 -3 0 -8 -5 -4 -23 -34 -40 -67 -16 -33 -32 -62 -35 -65 -14
-14 -39 -60 -33 -60 5 0 3 -4 -3 -8 -5 -4 -23 -32 -38 -62 -16 -30 -37 -66
-47 -79 -10 -13 -16 -27 -13 -32 3 -5 0 -9 -7 -9 -7 0 -10 -3 -6 -6 3 -4 -1
-13 -9 -21 -15 -15 -11 -45 8 -67 11 -13 40 -66 71 -126 12 -25 30 -54 39 -64
10 -10 15 -23 12 -28 -3 -4 0 -8 6 -8 6 0 9 -4 5 -9 -3 -6 0 -13 7 -18 7 -4
36 -52 63 -105 28 -54 53 -98 57 -98 3 0 11 -13 17 -30 8 -26 7 -30 -7 -31 -9
-1 -21 0 -27 1 -26 7 -92 5 -108 -2 -10 -5 -17 -5 -17 2 0 5 -5 10 -11 10 -5
0 -8 -4 -5 -9 6 -9 -42 -6 -71 4 -7 2 -13 -1 -13 -7 0 -7 -4 -7 -12 -1 -18 14
-53 1 -54 -20 -2 -13 1 -15 10 -8 9 8 13 6 14 -4 1 -8 3 -22 4 -30 1 -8 11
-15 22 -16 12 0 15 -3 9 -6 -7 -2 -13 -9 -13 -15 0 -6 7 -7 16 -4 8 3 13 2 9
-3 -3 -5 1 -12 7 -14 7 -3 4 -6 -7 -7 -19 -1 -18 -2 2 -10 15 -6 21 -15 17
-25 -4 -10 0 -15 11 -15 9 0 14 -4 11 -9 -3 -4 0 -20 7 -34 9 -19 18 -25 32
-22 11 3 14 2 8 -1 -7 -3 -13 -12 -13 -20 0 -9 4 -12 10 -9 6 4 7 -1 3 -11 -5
-14 -3 -16 13 -10 15 5 16 4 7 -5 -12 -12 -6 -42 7 -34 8 5 25 -42 22 -57 -1
-5 4 -7 11 -5 6 1 11 -4 10 -10 -2 -7 2 -13 7 -13 6 0 10 -6 10 -14 0 -8 6
-17 13 -19 9 -4 9 -6 0 -6 -7 -1 -13 -6 -13 -12 0 -5 3 -8 7 -6 5 2 19 -7 33
-21 14 -14 17 -20 8 -13 -14 10 -16 9 -11 -8 5 -19 15 -26 36 -22 5 1 6 -2 3
-7 -3 -5 1 -17 8 -28 8 -10 12 -24 9 -31 -3 -7 0 -13 7 -13 6 0 8 -5 5 -10 -3
-6 -1 -10 5 -10 6 0 8 -5 5 -10 -3 -6 2 -10 12 -10 15 0 16 -2 3 -10 -13 -8
-12 -10 3 -10 10 0 15 -4 12 -10 -3 -5 -1 -10 6 -10 8 0 8 -5 -2 -17 -7 -10
-10 -15 -5 -11 11 9 34 -14 38 -38 4 -24 20 -43 31 -37 4 2 6 -7 3 -21 -3 -18
-1 -23 10 -19 10 3 12 0 8 -10 -3 -8 0 -18 5 -22 6 -3 8 -11 5 -17 -4 -7 -2
-8 4 -4 7 4 12 2 12 -4 0 -6 5 -8 12 -4 8 5 9 2 5 -11 -5 -11 -1 -22 10 -31
17 -13 17 -14 -2 -8 -13 4 -9 -2 10 -15 17 -12 24 -21 15 -21 -9 0 -11 -3 -5
-8 6 -4 16 -19 24 -34 8 -15 18 -25 23 -22 4 3 8 -6 8 -20 0 -14 5 -26 11 -26
5 0 7 -5 4 -10 -3 -6 1 -13 9 -16 9 -3 13 -10 11 -15 -3 -4 3 -17 15 -29 22
-22 27 -35 8 -24 -6 4 -3 -5 8 -19 10 -15 22 -27 27 -27 4 0 7 -7 7 -15 0 -8
4 -15 10 -15 5 0 6 -8 3 -17 -5 -12 -2 -15 10 -10 15 6 16 4 6 -16 -11 -19
-10 -21 3 -9 13 10 18 10 24 1 4 -8 3 -9 -4 -5 -19 11 -14 -15 6 -31 9 -8 11
-12 5 -8 -9 4 -11 1 -7 -9 3 -9 10 -14 14 -11 4 3 11 -2 14 -11 4 -10 2 -13
-7 -9 -6 4 -4 0 6 -8 9 -8 17 -19 17 -25 0 -5 7 -13 16 -16 8 -3 13 -10 9 -15
-3 -5 0 -13 6 -16 5 -4 8 -14 5 -22 -4 -10 -2 -13 8 -10 10 4 13 1 9 -9 -3 -7
0 -14 7 -14 7 0 10 -7 6 -15 -3 -8 4 -21 15 -29 15 -10 17 -15 7 -19 -7 -3 -2
-6 12 -6 20 -1 22 -3 10 -11 -9 -6 -11 -13 -5 -17 6 -5 16 -20 24 -35 8 -16
18 -28 23 -28 5 0 6 -5 2 -12 -5 -7 -2 -9 8 -5 17 6 19 -8 4 -32 -6 -10 -5
-12 2 -7 7 4 12 2 12 -3 0 -6 9 -20 20 -31 11 -11 15 -20 9 -20 -6 0 -3 -7 5
-16 9 -8 13 -20 10 -26 -4 -7 -2 -8 4 -4 7 4 12 1 12 -8 0 -9 5 -16 11 -16 5
0 8 -4 5 -9 -3 -5 1 -12 10 -15 9 -4 14 -13 10 -21 -3 -9 1 -18 9 -21 7 -3 11
-12 8 -21 -5 -13 -3 -14 18 -3 21 12 22 11 12 -2 -10 -11 -10 -17 0 -28 9 -10
9 -11 0 -6 -7 4 -13 2 -13 -3 0 -6 6 -11 14 -11 12 0 22 -16 31 -50 7 -25 19
-39 29 -33 6 4 5 -1 -3 -10 -12 -15 -12 -17 4 -11 12 5 16 4 12 -3 -4 -6 2
-21 13 -33 22 -25 26 -35 10 -25 -5 3 -10 1 -10 -4 0 -6 7 -11 15 -11 8 0 15
-9 15 -20 0 -11 5 -20 11 -20 6 0 9 -7 6 -14 -4 -11 -1 -13 11 -9 15 6 16 5 2
-13 -8 -10 -11 -16 -6 -12 12 10 45 -23 39 -38 -3 -8 0 -14 6 -14 6 0 10 -6 8
-12 -1 -7 5 -12 14 -12 12 1 15 -4 11 -18 -4 -15 -7 -17 -14 -6 -8 10 -9 10
-5 -2 2 -8 12 -13 22 -12 17 3 17 2 4 -15 -13 -16 -13 -17 3 -5 10 8 17 17 16
20 -2 19 3 33 11 28 5 -3 12 1 15 10 4 10 2 13 -7 8 -6 -4 -4 2 6 13 9 11 14
23 10 28 -5 4 0 5 10 2 10 -4 16 -3 12 3 -3 5 2 22 12 37 14 21 15 25 3 19 -8
-4 -2 2 13 14 23 19 26 25 15 38 -7 9 -8 13 -3 10 6 -3 16 0 23 8 10 11 10 14
0 14 -6 0 -4 6 7 13 10 8 15 19 12 24 -4 6 4 18 18 27 14 9 25 25 25 36 0 11
4 20 9 20 5 0 12 7 15 16 4 10 2 13 -7 9 -6 -4 -3 1 7 9 11 9 17 19 13 22 -4
4 2 13 13 21 11 8 20 21 20 29 0 8 4 12 10 9 6 -3 7 1 4 9 -3 9 -1 16 6 16 6
0 8 4 5 10 -3 5 -2 10 4 10 5 0 8 9 6 19 -3 14 1 18 11 14 9 -3 14 2 14 15 0
12 5 24 10 27 6 4 8 11 5 16 -4 5 1 9 9 9 9 0 16 5 16 11 0 5 -5 7 -11 3 -8
-4 -8 0 0 15 7 11 14 21 17 21 3 0 2 -5 -2 -12 -4 -7 -3 -8 4 -4 7 4 12 15 12
24 0 10 9 25 20 35 12 10 18 21 15 26 -2 5 1 11 9 14 9 4 12 14 9 26 -4 14 -1
21 10 21 8 0 17 7 21 15 3 8 1 15 -5 15 -12 0 11 26 26 29 33 6 628 5 632 -2
2 -4 9 -5 14 -2 5 4 9 2 9 -3 0 -5 56 -9 130 -9 72 0 133 -3 137 -6 3 -3 16
-38 29 -77 22 -64 63 -151 112 -236 25 -43 110 -150 164 -204 84 -86 191 -162
313 -221 38 -19 72 -34 75 -35 3 0 14 -4 25 -8 127 -48 225 -65 385 -65 82 0
165 5 185 10 38 11 60 16 105 25 37 8 197 73 247 101 198 110 377 300 481 508
26 54 63 152 61 165 0 3 4 18 10 33 6 15 13 40 15 55 3 15 8 47 12 72 10 58
11 257 2 335 -9 80 -41 193 -80 285 -37 85 -107 213 -119 218 -5 2 -9 9 -9 16
0 9 -150 210 -169 226 -3 3 -14 14 -23 26 -17 19 -16 22 7 56 14 21 25 44 25
52 0 9 4 16 8 16 5 0 17 18 27 40 10 22 21 40 24 40 4 0 12 12 18 28 7 15 26
50 42 77 17 28 34 58 37 68 4 9 11 17 16 17 5 0 6 5 3 10 -3 6 -2 10 3 10 5 0
12 8 15 17 4 10 22 45 42 78 19 33 38 67 41 75 4 8 13 22 20 30 7 8 24 38 38
65 29 54 36 67 79 133 15 24 22 40 15 36 -14 -8 20 36 37 48 7 5 6 8 0 8 -6 0
-24 27 -40 60 -17 33 -33 60 -37 60 -5 0 -8 4 -8 9 0 5 -16 38 -37 73 -20 34
-46 82 -59 105 -13 23 -31 54 -40 68 -21 33 -35 57 -98 171 -28 49 -53 91 -58
92 -4 2 -8 7 -8 12 0 9 -121 222 -131 230 -8 7 -23 43 -21 52 3 14 -45 22
-130 20 l-87 -1 11 24 c6 14 15 22 21 18 6 -3 7 -1 4 5 -4 5 8 26 27 45 19 20
32 38 28 41 -3 3 -1 6 5 6 5 0 15 11 21 24 8 19 8 27 -3 36 -8 7 -13 16 -10
20 3 5 2 10 -2 12 -8 3 -34 49 -77 133 -12 22 -24 42 -27 45 -4 3 -22 36 -42
73 -19 37 -41 74 -47 82 -7 8 -9 15 -4 15 5 0 4 4 -2 8 -5 4 -39 59 -74 122
-35 63 -72 130 -82 148 -10 17 -26 47 -36 65 -10 17 -34 61 -53 97 -18 36 -36
67 -40 70 -3 3 -12 19 -19 36 -8 17 -21 35 -29 40 -9 5 -338 6 -751 3z m83
-998 c4 -1 -19 -40 -50 -87 -45 -68 -55 -89 -47 -102 12 -18 136 -232 218
-375 28 -48 56 -96 61 -105 6 -10 50 -87 99 -172 49 -85 96 -163 104 -172 8
-10 11 -19 6 -20 -5 -1 36 -4 90 -7 l99 -6 -28 -33 -27 -32 37 -45 36 -45 -99
0 -100 0 -35 -59 c-19 -33 -38 -69 -42 -80 -3 -12 -11 -21 -16 -21 -5 0 -9 -7
-9 -15 0 -8 -5 -15 -11 -15 -5 0 -8 -4 -5 -9 3 -5 -1 -14 -9 -21 -8 -7 -15
-16 -15 -21 0 -5 -11 -26 -24 -47 -13 -20 -49 -82 -81 -137 -32 -55 -68 -117
-81 -137 -14 -21 -22 -38 -19 -38 3 0 1 -6 -5 -13 -6 -6 -32 -48 -58 -93 -44
-77 -81 -128 -127 -178 -12 -13 -43 -53 -70 -89 l-49 -67 -293 0 c-182 0 -293
4 -293 10 0 5 7 7 14 4 12 -4 14 1 10 21 -4 22 -2 26 11 22 8 -4 15 -2 15 3 0
6 -6 10 -12 11 -7 0 -3 4 10 9 13 6 22 18 22 31 0 15 5 19 15 15 19 -7 19 -1
0 17 -13 13 -13 16 1 21 8 3 12 2 9 -4 -3 -6 -4 -10 0 -10 5 0 22 38 23 53 0
5 11 17 23 28 20 17 19 24 -4 20 -5 -1 -5 4 -2 10 4 6 16 8 27 6 14 -4 16 -2
10 6 -12 15 3 56 23 64 9 3 14 12 11 19 -3 7 2 18 11 22 10 6 14 16 9 27 -5
15 -4 16 8 6 11 -9 16 -9 22 0 4 7 3 9 -4 5 -6 -4 -10 1 -9 13 0 11 4 19 7 19
19 -2 23 4 10 13 -12 9 -11 10 6 6 17 -4 20 0 18 19 -1 17 3 24 14 24 15 0 15
2 2 10 -13 8 -13 10 2 10 10 0 16 7 15 18 -1 19 -32 23 -56 7 -6 -3 -11 0 -11
7 0 9 -3 9 -10 -2 -7 -11 -10 -11 -10 -2 0 9 -5 10 -19 3 -10 -6 -21 -8 -24
-4 -10 9 -140 10 -159 1 -11 -5 -18 -5 -18 2 0 5 -5 10 -11 10 -5 0 -8 -4 -5
-9 6 -9 -42 -6 -71 4 -7 2 -13 -1 -13 -7 0 -9 -3 -9 -12 0 -7 7 -17 8 -30 1
-12 -6 -18 -6 -18 1 0 5 -5 10 -11 10 -5 0 -8 -4 -4 -9 3 -6 -6 -6 -24 -1 -16
4 -32 5 -35 2 -4 -3 -27 -5 -52 -3 -35 1 -44 -1 -39 -11 3 -7 0 -5 -7 4 -10
11 -19 14 -28 8 -9 -6 -17 -4 -22 3 -6 9 -8 8 -8 -2 0 -11 -3 -11 -17 0 -15
12 -16 12 -9 -6 6 -16 5 -18 -5 -7 -7 6 -26 12 -42 12 -19 0 -26 -4 -22 -12 4
-7 0 -5 -7 4 -10 11 -19 14 -29 7 -20 -12 -32 -11 -23 3 5 7 3 8 -6 3 -8 -5
-34 -8 -58 -6 -33 1 -42 -1 -37 -11 3 -7 1 -6 -7 2 -13 16 -73 16 -63 0 3 -5
-4 -11 -14 -15 -11 -3 -18 -12 -15 -19 3 -7 -1 -18 -9 -24 -11 -9 -17 -5 -29
21 -8 17 -16 36 -16 41 0 5 -5 12 -10 15 -12 8 -47 74 -44 84 1 4 -3 7 -8 7
-10 0 -35 48 -32 63 1 4 -3 7 -9 7 -5 0 -7 5 -4 10 3 6 2 10 -3 10 -5 0 -26
33 -47 73 -21 39 -46 83 -56 96 -10 13 -16 27 -13 32 3 5 1 9 -4 9 -5 0 -17
18 -27 40 -10 22 -23 40 -28 40 -6 0 -7 3 -4 6 4 4 -3 20 -14 36 -13 18 -18
35 -13 46 4 9 6 20 6 25 -1 4 3 7 8 7 6 0 10 7 10 15 0 8 5 15 11 15 5 0 7 5
4 10 -3 6 -2 10 3 10 6 0 13 11 16 25 4 14 11 25 16 25 6 0 10 6 10 13 0 7 11
29 25 50 14 20 22 37 18 37 -4 0 -3 4 2 8 6 4 17 21 25 37 8 17 17 32 20 35 3
3 11 16 18 30 6 14 28 52 47 85 20 33 43 75 51 93 8 17 19 32 25 32 5 0 8 4 4
9 -3 5 2 16 10 24 8 9 15 18 15 21 0 5 57 106 86 153 8 13 14 26 13 29 0 4 3
10 8 13 4 3 21 31 37 61 16 30 35 62 42 71 8 9 11 19 7 22 -3 4 -2 7 4 7 6 0
13 8 17 18 11 33 43 81 50 75 4 -4 5 -1 2 7 -7 19 14 47 39 51 14 3 1266 3
1298 0z m1206 -2403 c11 -18 41 -64 66 -103 43 -66 102 -193 111 -239 2 -11 6
-31 9 -43 3 -13 8 -35 11 -50 8 -37 9 -211 1 -243 -3 -14 -8 -36 -11 -50 -21
-96 -54 -105 -106 -28 -65 95 -188 241 -301 356 -38 40 -49 62 -29 62 5 0 20
21 32 48 12 26 40 76 62 112 21 35 45 79 53 97 7 18 18 33 23 33 6 0 9 3 8 8
-4 13 27 72 38 72 7 0 21 -15 33 -32z m-379 -628 c0 -5 10 -19 23 -32 121
-124 178 -236 177 -347 0 -90 -2 -104 -10 -116 -4 -5 -13 -27 -20 -48 -28 -87
-142 -189 -245 -219 -45 -13 -146 -16 -185 -5 -8 2 -28 8 -45 12 -64 17 -151
86 -195 155 -41 63 -67 158 -64 227 2 53 29 149 44 158 5 3 90 5 190 6 146 0
185 3 197 14 8 8 11 15 7 15 -3 0 -2 6 4 13 5 6 26 44 47 82 21 39 42 76 48
83 11 14 27 16 27 2z"/>
<path d="M2605 2189 c-4 -6 -5 -12 -2 -15 2 -3 7 2 10 11 7 17 1 20 -8 4z"/>
<path d="M330 1863 c0 -6 8 -17 18 -24 16 -13 16 -13 2 6 -8 11 -16 22 -17 24
-2 2 -3 0 -3 -6z"/>
<path d="M1546 298 c3 -5 10 -6 15 -3 13 9 11 12 -6 12 -8 0 -12 -4 -9 -9z"/>
</g>
</svg>
